<svg xmlns="http://www.w3.org/2000/svg" xmlns:xlink="http://www.w3.org/1999/xlink" id="Слой_1" x="0" y="0" enable-background="new -281 373 48 48" version="1.1" viewBox="-281 373 48 48" xml:space="preserve"><path fill="none" d="M-281,373h48v48h-48V373z"/><g><path fill-opacity=".3" d="M-247,383.7c0-1.5-1.2-2.7-2.7-2.7h-3.3v-4h-8v4h-3.3c-1.5,0-2.7,1.2-2.7,2.7v10.7h20 V383.7z" display="none"/><path d="M-256,380v1v3h3h3v7.3h-14V384h3h3v-3v-1H-256 M-253,377h-8v4h-3.3c-1.5,0-2.7,1.2-2.7,2.7v10.7h20v-10.7 c0-1.5-1.2-2.7-2.7-2.7h-3.3V377L-253,377z"/></g><path d="M-267,391v23.3c0,1.5,1.2,2.7,2.7,2.7h14.7c1.5,0,2.7-1.2,2.7-2.7V391C-247,391-267,391-267,391z"/></svg>