<svg xmlns="http://www.w3.org/2000/svg" xmlns:xlink="http://www.w3.org/1999/xlink" id="Слой_1" x="0" y="0" enable-background="new -281 373 48 48" version="1.1" viewBox="-281 373 48 48" xml:space="preserve"><path fill="none" d="M-281,373h48v48h-48V373z"/><g><path fill-opacity=".3" d="M-247,384.2c0-1.6-1.2-2.9-2.7-2.9h-3.3V377h-8v4.3h-3.3c-1.5,0-2.7,1.3-2.7,2.9V403h20 L-247,384.2z" display="none"/><path d="M-256,380v1.3v3h3h3l0,15.7h-14l0-15.7h3h3v-3V380H-256 M-253,377h-8v4.3h-3.3c-1.5,0-2.7,1.3-2.7,2.9V403h20l0-18.8 c0-1.6-1.2-2.9-2.7-2.9h-3.3V377L-253,377z"/></g><path d="M-267,399v15.3c0,1.5,1.2,2.7,2.7,2.7h14.7c1.5,0,2.7-1.2,2.7-2.7V399C-247,399-267,399-267,399z"/></svg>