<svg xmlns="http://www.w3.org/2000/svg" xmlns:xlink="http://www.w3.org/1999/xlink" id="Слой_1" x="0" y="0" enable-background="new -281 373 48 48" version="1.1" viewBox="-281 373 48 48" xml:space="preserve"><g><path fill-opacity=".3" d="M-257,416l23.3-29c-0.9-0.7-9.9-8-23.3-8s-22.4,7.3-23.3,8L-257,416L-257,416 C-257,416-257,416-257,416z" display="none"/><path d="M-257,382c8.5,0,15.2,3.2,18.9,5.6l-18.9,23.6l-18.9-23.6C-272.2,385.2-265.5,382-257,382 M-257,379 c-13.4,0-22.4,7.3-23.3,8l23.3,29l0,0l0,0l23.3-29C-234.6,386.3-243.6,379-257,379L-257,379z"/></g><path fill="none" d="M-281,373h48v48h-48V373z"/><path d="M-271.4,398l14.4,18l0,0l0,0l14.4-18c-0.7-0.6-6.2-5-14.4-5C-265.2,393-270.7,397.5-271.4,398z"/></svg>